<svg width="82" height="76" viewBox="0 0 82 76" fill="none" xmlns="http://www.w3.org/2000/svg">
<path d="M21.1081 8.8194C14.5167 8.28257 10.2009 8.66602 7.21906 9.43292C4.0803 23.0838 5.41427 21.0131 12.5549 31.1362C18.0478 38.882 12.6334 47.2412 22.599 50.1554C40.6468 55.447 40.7253 56.2906 52.1033 58.5147C52.888 58.668 53.7511 58.8214 54.5358 58.8981C54.065 54.9102 51.3186 50.5389 45.5119 45.8608C34.8401 37.4248 49.7492 11.1201 21.1081 8.8194Z" fill="#45A8D0"/>
<path d="M75.801 39.112C76.9781 31.7498 76.9781 26.9183 76.5073 23.3905C61.8336 18.4824 63.9522 20.0929 52.2604 27.0717C45.4336 31.1362 38.8422 28.1453 34.2125 31.1362C32.0939 32.5167 32.8001 33.3603 30.446 36.3512C23.2269 45.6307 14.8307 43.7901 13.2613 49.0818C11.6135 54.6034 20.0097 58.9748 18.4403 68.6378C18.2049 69.8648 17.9695 70.8618 17.7341 71.3219C22.1283 71.2452 27.2288 68.6378 32.957 62.5025C43.158 51.6892 70.5436 71.0918 75.801 39.112Z" fill="#E1904D"/>
<path d="M51.7895 18.7124C55.1698 18.7124 57.9101 16.0342 57.9101 12.7306C57.9101 9.42688 55.1698 6.74872 51.7895 6.74872C48.4092 6.74872 45.6689 9.42688 45.6689 12.7306C45.6689 16.0342 48.4092 18.7124 51.7895 18.7124Z" stroke="#000105" stroke-width="3" stroke-miterlimit="10"/>
<path d="M30.7597 37.9617C34.14 37.9617 36.8803 35.2835 36.8803 31.9798C36.8803 28.6761 34.14 25.998 30.7597 25.998C27.3794 25.998 24.6392 28.6761 24.6392 31.9798C24.6392 35.2835 27.3794 37.9617 30.7597 37.9617Z" stroke="#000105" stroke-width="3" stroke-miterlimit="10"/>
<path d="M40.2545 51.5358C33.4277 51.5358 26.6009 51.5358 19.8526 51.5358C20.245 51.996 20.6373 52.5328 20.9512 52.9929C21.8143 48.5449 24.9531 44.0202 30.0536 44.0202C35.0756 44.0202 38.2928 48.5449 39.156 52.9929C39.3914 54.4501 41.667 53.8365 41.4316 52.3794C40.4115 46.8577 36.1741 41.7195 30.0536 41.7195C24.0115 41.7195 19.6957 46.8577 18.6756 52.3794C18.5186 53.0696 18.9895 53.8365 19.7741 53.8365C26.6009 53.8365 33.4277 53.8365 40.1761 53.8365C41.7454 53.8365 41.7454 51.5358 40.2545 51.5358Z" fill="#000105"/>
<path d="M46.0611 53.8365C51.7109 53.8365 57.3607 53.8365 63.0104 53.8365C63.6382 53.8365 64.1875 53.2997 64.1875 52.6862C64.5013 45.0938 66.2277 34.7406 62.0688 27.7618C59.087 22.777 51.397 21.1665 46.375 24.004C41.1961 26.9949 40.176 34.0504 40.0975 39.3421C40.0975 40.5691 39.7836 42.333 40.4114 43.4833C40.6468 43.9435 41.51 44.4036 41.9023 44.7871C44.021 46.9344 44.7272 49.7719 44.9626 52.6095C45.0411 54.0666 47.3951 54.0666 47.3167 52.6095C47.0812 49.5419 46.375 46.4743 44.3348 44.0202C43.864 43.4833 43.1578 42.4097 42.4516 42.1796C41.7454 41.9495 42.3731 43.2533 42.6085 42.4864C43.0793 41.1826 42.53 38.8052 42.6085 37.3481C42.7655 34.5106 43.3147 31.5197 44.7272 29.0656C48.0229 23.3905 57.3607 23.6206 60.421 29.449C63.8736 36.0444 62.2257 45.554 61.9119 52.6095C62.3042 52.226 62.6966 51.8426 63.0889 51.4591C57.4391 51.4591 51.7894 51.4591 46.1396 51.4591C44.4918 51.5358 44.4918 53.8365 46.0611 53.8365Z" fill="#000105"/>
</svg>
