<svg width="86" height="86" viewBox="0 0 86 86" fill="none" xmlns="http://www.w3.org/2000/svg">
<path d="M34.3059 7.73998C25.8134 7.52499 19.0946 3.62811 14.5662 3.84311C13.1553 3.9103 11.9459 4.43436 11.5024 5.18686C5.68401 14.7947 8.12964 13.6256 17.2806 22.0375C22.8034 27.1034 18.6915 32.035 22.8437 35.4616C24.7518 37.0337 25.8671 36.5097 29.9253 38.2431C42.5296 43.6181 46.1981 53.2662 53.4409 54.4353C61.0062 55.6581 66.9456 49.4097 80.074 50.5787C80.0874 50.5787 80.1009 50.5787 80.1278 50.5787C82.0493 50.7534 83.8634 50.0547 84.2262 48.9931C85.5162 45.2037 82.9496 30.3553 76.9565 25.5178C65.1181 15.9369 77.9106 8.81499 34.3059 7.73998Z" fill="#C3D351"/>
<path d="M21.0969 17.2672C12.7522 16.5953 7.28314 17.0791 3.46689 18.0466C-0.497169 35.7841 1.14221 33.0697 10.1991 46.1847C17.1328 56.2091 10.2797 67.0935 22.911 70.8425C45.8353 77.6553 45.8488 78.8244 60.3075 81.6328C61.3422 81.8344 62.3769 82.0091 63.425 82.1569C62.8741 77.0238 59.3803 71.2725 51.936 65.1988C38.5656 54.301 57.4319 20.21 21.0969 17.2672Z" fill="#D8639B"/>
<path d="M46.0638 57.7409C42.812 57.7409 40.1782 55.1072 40.1782 51.8553C40.1782 48.6034 42.812 45.9697 46.0638 45.9697C49.3157 45.9697 51.9495 48.6034 51.9495 51.8553C51.936 55.1072 49.3023 57.7275 46.0638 57.7409ZM46.0638 47.9315C43.9004 47.9315 42.1401 49.6918 42.1401 51.8553C42.1401 54.0187 43.9004 55.779 46.0638 55.779C48.2273 55.779 49.9876 54.0187 49.9876 51.8553C49.9742 49.6918 48.2273 47.9315 46.0638 47.9315Z" fill="#000105"/>
<path d="M28.4203 28.3397C25.1684 28.3397 22.5347 25.7059 22.5347 22.454C22.5347 19.2022 25.1684 16.5684 28.4203 16.5684C31.6722 16.5684 34.3059 19.2022 34.3059 22.454C34.2925 25.7059 31.6722 28.3397 28.4203 28.3397ZM28.4203 18.5437C26.2569 18.5437 24.4965 20.304 24.4965 22.4675C24.4965 24.6309 26.2569 26.3912 28.4203 26.3912C30.5837 26.3912 32.344 24.6309 32.344 22.4675C32.344 20.304 30.5837 18.5437 28.4203 18.5437Z" fill="#000105"/>
<path d="M63.694 28.3397C60.4421 28.3397 57.8083 25.7059 57.8083 22.454C57.8083 19.2022 60.4421 16.5684 63.694 16.5684C66.9458 16.5684 69.5796 19.2022 69.5796 22.454C69.5796 25.7059 66.9458 28.3397 63.694 28.3397ZM63.694 18.5437C61.5305 18.5437 59.7702 20.304 59.7702 22.4675C59.7702 24.6309 61.5305 26.3912 63.694 26.3912C65.8574 26.3912 67.6177 24.6309 67.6177 22.4675C67.6177 20.304 65.8574 18.5437 63.694 18.5437Z" fill="#000105"/>
<path d="M31.8201 63.1831C25.3836 58.8697 21.2851 51.8418 20.667 44.1153L22.6154 43.954C23.1798 51.0894 26.9692 57.5662 32.9086 61.5437L31.8201 63.1831Z" fill="#000105"/>
<path d="M59.8506 63.4788L58.7891 61.8394C64.9166 57.8753 68.8672 51.2909 69.4987 44.0212L71.4472 44.1825C70.7753 52.0569 66.4887 59.1787 59.8506 63.4788Z" fill="#000105"/>
<path d="M36.6575 20.4921L35.8782 18.6915C42.2879 15.91 49.5441 15.8696 55.9807 18.584L55.2147 20.3846C49.2754 17.8853 42.57 17.9256 36.6575 20.4921Z" fill="#000105"/>
<path d="M33.3251 28.3397H23.5157C19.7263 28.3397 16.6626 31.4168 16.6626 35.1928V39.8018L19.377 40.7962C25.2223 42.9193 31.6185 42.9193 37.4638 40.7962L40.1782 39.8018V35.1928C40.1782 31.4168 37.101 28.3397 33.3251 28.3397ZM38.2163 38.4312L36.792 38.9553C36.2948 39.13 35.7842 39.2778 35.2735 39.4256V33.2309H33.3251V39.9093C30.0867 40.5678 26.7542 40.5678 23.5292 39.9093V33.2443H21.5673V39.439C21.0567 39.2912 20.5595 39.1434 20.0488 38.9687L18.6245 38.4447V35.2062C18.6245 32.5053 20.8148 30.315 23.5292 30.3015H33.3251C36.026 30.3015 38.2163 32.4918 38.2298 35.2062V38.4312H38.2163Z" fill="#000105"/>
<path d="M68.5985 28.3397H58.8026C55.0132 28.3397 51.9495 31.4168 51.9495 35.1928V39.8018L54.6638 40.7962C60.5091 42.9193 66.9054 42.9193 72.7507 40.7962L75.4651 39.8018V35.1928C75.4516 31.4168 72.3879 28.3397 68.5985 28.3397ZM73.5032 38.4312L72.0788 38.9553C71.5816 39.13 71.071 39.2778 70.5604 39.4256V33.2309H68.5985V39.9093C65.3601 40.5678 62.0276 40.5678 58.8026 39.9093V33.2443H56.8407V39.439C56.3301 39.2912 55.8329 39.1434 55.3223 38.9687L53.8979 38.4447V35.2062C53.8979 32.5053 56.0882 30.315 58.8026 30.3015H68.5985C71.2995 30.3015 73.4898 32.4918 73.5032 35.2062V38.4312Z" fill="#000105"/>
<path d="M50.9552 57.7409H41.1593C37.3699 57.7409 34.3062 60.8181 34.3062 64.594V69.2031L37.0205 70.1975C42.8658 72.3206 49.2621 72.3206 55.1074 70.1975L57.8218 69.2031V64.594C57.8083 60.8047 54.7446 57.7409 50.9552 57.7409ZM55.8599 67.8325L54.4355 68.3566C53.9383 68.5312 53.4277 68.6791 52.9171 68.8269V62.6322H50.9552V69.2972C47.7168 69.9556 44.3843 69.9556 41.1593 69.2972V62.6322H39.1974V68.8269C38.6868 68.6791 38.1896 68.5312 37.679 68.3566L36.2546 67.8325V64.594C36.2546 61.8931 38.4449 59.7028 41.1593 59.6893H50.9552C53.6561 59.6893 55.8465 61.8797 55.8599 64.594V67.8325Z" fill="#000105"/>
</svg>
