<svg width="80" height="75" viewBox="0 0 80 75" fill="none" xmlns="http://www.w3.org/2000/svg">
<path d="M7.42578 20.6609C3.59803 25.8829 9.9521 35.1917 10.5645 38.2947C13.3205 52.6741 -5.66513 56.6852 7.732 58.0474C17.9904 59.107 18.6028 53.3552 27.3301 47.6791C43.1004 37.4622 51.0621 53.3552 59.9425 46.0898C60.555 45.56 61.244 45.0303 61.8564 44.5005C58.0287 42.1544 74.7177 0.378399 66.9856 2.11907C34.0669 9.53582 25.0334 -3.10293 7.42578 20.6609Z" fill="#45A8D0"/>
<path d="M65.1483 13.9254C61.7033 9.00609 58.5645 8.70337 56.1913 6.58429C55.4258 5.90316 54.4306 5.7518 53.5885 6.13021C42.5645 10.8224 45.0143 8.24928 42.3349 19.6014C40.7272 26.4128 34.5263 28.3048 33.6841 33.1484C33.3014 35.3431 34.2966 35.4945 34.7559 38.9758C36.287 49.6469 29.933 59.1827 32.4593 63.7992C35.0621 68.6428 34.7559 65.2372 40.1148 72.8053C40.8803 73.9405 42.488 74.3946 43.4832 73.6378C62.8516 57.6691 73.2631 66.5238 72.4975 54.4148C71.6554 40.7165 83.0621 39.1272 65.1483 13.9254Z" fill="#C3D351"/>
<path d="M42.1819 60.7719C55.331 60.7719 65.9905 50.2341 65.9905 37.2351C65.9905 24.236 55.331 13.6982 42.1819 13.6982C29.0328 13.6982 18.3733 24.236 18.3733 37.2351C18.3733 50.2341 29.0328 60.7719 42.1819 60.7719Z" stroke="#000105" stroke-width="3" stroke-miterlimit="10"/>
<path d="M31.847 40.111C35.3685 40.111 38.9666 40.111 42.4882 40.111C43.9427 40.111 43.9427 37.8406 42.4882 37.8406C38.9666 37.8406 35.3685 37.8406 31.847 37.8406C30.3925 37.8406 30.3925 40.111 31.847 40.111Z" fill="#000105"/>
<path d="M43.4833 39.5055C45.7799 34.5862 48.0766 29.7426 50.4498 24.8233C51.0622 23.5367 49.0718 22.3258 48.4593 23.6881C46.1627 28.6074 43.866 33.451 41.4928 38.3702C40.8804 39.7325 42.8708 40.8677 43.4833 39.5055Z" fill="#000105"/>
</svg>
