<svg width="1021" height="562" viewBox="0 0 1021 562" fill="none" xmlns="http://www.w3.org/2000/svg">
<path d="M1311.81 211.739C1343.57 145.605 1354.62 97.928 1356 61.7854C1356 50.2505 1344.95 40.2536 1325.62 35.6397C1088.1 -24.3417 1114.34 -2.80992 886.493 57.1714C749.783 94.0831 629.645 54.0955 535.743 82.5482C492.935 95.621 503.982 104.849 454.27 134.84C298.228 227.119 46.9034 242.498 6.85718 298.635C-33.189 356.309 117.329 412.446 68.9978 514.722C68.9978 514.722 68.9978 514.722 68.9978 515.491C62.0933 530.87 77.2833 546.25 103.52 550.095C198.803 565.475 549.552 573.934 648.977 523.949C864.398 416.291 1150.25 551.633 1311.81 211.739Z" fill="#C3D351"/>
</svg>
