<svg width="1057" height="640" viewBox="0 0 1057 640" fill="none" xmlns="http://www.w3.org/2000/svg">
<path d="M1008.22 217.576C1044.47 145.659 1056.07 94.3642 1056.3 55.8055C1055.83 43.5201 1041.89 33.3877 1018.01 29.3748C724.502 -23.4376 757.529 -1.72785 480.726 72.7775C314.682 118.463 165.831 81.4743 51.9055 116.156C-0.0266894 132.074 13.8856 141.388 -45.8228 175.647C-233.316 281.204 -540.695 309.3 -587.498 370.956C-634.239 434.25 -447.502 487.023 -502.59 598.206C-502.59 598.206 -502.59 598.206 -502.559 599.025C-510.397 615.728 -491.159 631.4 -458.849 634.272C-341.456 646.211 88.7357 638.87 208.558 580.999C468.198 456.293 823.991 587.117 1008.22 217.576Z" fill="#C3D351"/>
</svg>
